TITLE ""
FILE "DISC2Track23.mp3" MP3
  TRACK 01 AUDIO
    TITLE "DISC2Track23_01"
    INDEX 01 00:00:00
  TRACK 02 AUDIO
    TITLE "DISC2Track23_02"
    INDEX 01 00:01:55
  TRACK 03 AUDIO
    TITLE "DISC2Track23_03"
    INDEX 01 00:01:70
  TRACK 04 AUDIO
    TITLE "DISC2Track23_04"
    INDEX 01 00:06:31
  TRACK 05 AUDIO
    TITLE "DISC2Track23_05"
    INDEX 01 00:09:70
  TRACK 06 AUDIO
    TITLE "DISC2Track23_06"
    INDEX 01 00:13:07
  TRACK 07 AUDIO
    TITLE "DISC2Track23_07"
    INDEX 01 00:13:25
  TRACK 08 AUDIO
    TITLE "DISC2Track23_08"
    INDEX 01 00:18:61
  TRACK 09 AUDIO
    TITLE "DISC2Track23_09"
    INDEX 01 00:23:25
  TRACK 10 AUDIO
    TITLE "DISC2Track23_10"
    INDEX 01 00:27:35
  TRACK 11 AUDIO
    TITLE "DISC2Track23_11"
    INDEX 01 00:27:50
  TRACK 12 AUDIO
    TITLE "DISC2Track23_12"
    INDEX 01 00:30:31
  TRACK 13 AUDIO
    TITLE "DISC2Track23_13"
    INDEX 01 00:32:71
  TRACK 14 AUDIO
    TITLE "DISC2Track23_14"
    INDEX 01 00:35:18
  TRACK 15 AUDIO
    TITLE "DISC2Track23_15"
    INDEX 01 00:35:34
  TRACK 16 AUDIO
    TITLE "DISC2Track23_16"
    INDEX 01 00:37:23
  TRACK 17 AUDIO
    TITLE "DISC2Track23_17"
    INDEX 01 00:39:53
  TRACK 18 AUDIO
    TITLE "DISC2Track23_18"
    INDEX 01 00:41:48
  TRACK 19 AUDIO
    TITLE "DISC2Track23_19"
    INDEX 01 00:41:60
  TRACK 20 AUDIO
    TITLE "DISC2Track23_20"
    INDEX 01 00:45:40
  TRACK 21 AUDIO
    TITLE "DISC2Track23_21"
    INDEX 01 00:49:11
  TRACK 22 AUDIO
    TITLE "DISC2Track23_22"
    INDEX 01 00:52:33
  TRACK 23 AUDIO
    TITLE "DISC2Track23_23"
    INDEX 01 00:52:46
  TRACK 24 AUDIO
    TITLE "DISC2Track23_24"
    INDEX 01 00:55:15
  TRACK 25 AUDIO
    TITLE "DISC2Track23_25"
    INDEX 01 00:58:18
  TRACK 26 AUDIO
    TITLE "DISC2Track23_26"
    INDEX 01 01:00:69
  TRACK 27 AUDIO
    TITLE "DISC2Track23_27"
    INDEX 01 01:01:08
  TRACK 28 AUDIO
    TITLE "DISC2Track23_28"
    INDEX 01 01:04:02
  TRACK 29 AUDIO
    TITLE "DISC2Track23_29"
    INDEX 01 01:06:31
  TRACK 30 AUDIO
    TITLE "DISC2Track23_30"
    INDEX 01 01:08:24
  TRACK 31 AUDIO
    TITLE "DISC2Track23_31"
    INDEX 01 01:08:39
  TRACK 32 AUDIO
    TITLE "DISC2Track23_32"
    INDEX 01 01:12:24
  TRACK 33 AUDIO
    TITLE "DISC2Track23_33"
    INDEX 01 01:15:69
  TRACK 34 AUDIO
    TITLE "DISC2Track23_34"
    INDEX 01 01:19:20
  TRACK 35 AUDIO
    TITLE "DISC2Track23_35"
    INDEX 01 01:19:35
  TRACK 36 AUDIO
    TITLE "DISC2Track23_36"
    INDEX 01 01:22:59
  TRACK 37 AUDIO
    TITLE "DISC2Track23_37"
    INDEX 01 01:26:10
  TRACK 38 AUDIO
    TITLE "DISC2Track23_38"
    INDEX 01 01:28:56
  TRACK 39 AUDIO
    TITLE "DISC2Track23_39"
    INDEX 01 01:29:14
  TRACK 40 AUDIO
    TITLE "DISC2Track23_40"
    INDEX 01 01:32:12
  TRACK 41 AUDIO
    TITLE "DISC2Track23_41"
    INDEX 01 01:34:54
  TRACK 42 AUDIO
    TITLE "DISC2Track23_42"
    INDEX 01 01:36:67
  TRACK 43 AUDIO
    TITLE "DISC2Track23_43"
    INDEX 01 01:37:10
  TRACK 44 AUDIO
    TITLE "DISC2Track23_44"
    INDEX 01 01:40:20
  TRACK 45 AUDIO
    TITLE "DISC2Track23_45"
    INDEX 01 01:43:32
  TRACK 46 AUDIO
    TITLE "DISC2Track23_46"
    INDEX 01 01:46:09
  TRACK 47 AUDIO
    TITLE "DISC2Track23_47"
    INDEX 01 01:46:24
  TRACK 48 AUDIO
    TITLE "DISC2Track23_48"
    INDEX 01 01:47:59
  TRACK 49 AUDIO
    TITLE "DISC2Track23_49"
    INDEX 01 01:50:10
  TRACK 50 AUDIO
    TITLE "DISC2Track23_50"
    INDEX 01 01:52:03
